<?xml version="1.0" encoding="utf-8"?>
<svg xmlns="http://www.w3.org/2000/svg" viewBox="0 0 1920 1080">
  <rect width="1920" height="1080" style="stroke: rgb(0, 0, 0); fill: rgb(255, 255, 255);"/>
  <path d="M 1209.17 371.171 C 1204.52 366.128 1198.03 363.152 1191.18 362.907 L 995.386 355.206 L 980.546 387.888 L 1000.94 449.42 L 964.096 519.405 L 979.126 575.753 L 1016.31 624.137 L 1070.19 574.325 C 1075.43 569.513 1083.58 569.85 1088.43 575.077 L 1157.75 650.057 C 1161.26 653.916 1162.15 659.498 1160 664.257 C 1157.8 668.995 1152.97 671.954 1147.76 671.77 L 957.856 664.332 L 948.396 691.529 L 958.646 716.097 L 1176.97 724.55 C 1191.25 725.098 1203.26 713.96 1203.8 699.681 L 1215.97 389.729 C 1216.28 382.882 1213.84 376.194 1209.17 371.171 Z M 1068.87 513.282 C 1038.99 513.213 1020.39 480.832 1035.38 454.997 C 1042.87 442.115 1057.06 434.65 1071.9 435.785 C 1101.69 438.058 1117.84 471.723 1100.98 496.381 C 1093.74 506.983 1081.71 513.311 1068.87 513.282 Z M 928.106 691.98 L 934.686 663.431 L 780.478 674.062 C 770.557 674.798 763.559 664.52 767.881 655.56 C 768.389 654.507 769.038 653.528 769.808 652.65 L 884.082 521.434 C 889.076 515.727 897.876 515.518 903.126 520.983 L 941.366 560.877 L 924.916 518.352 L 953.916 444.95 L 927.166 386.198 L 938.326 352.164 L 728.037 366.663 C 713.781 367.646 703.038 380.023 704.07 394.275 L 725.406 703.814 C 725.846 710.632 728.998 716.991 734.16 721.469 C 739.344 725.939 746.106 728.23 752.942 727.78 L 940.696 714.82 L 928.106 691.98 Z" fill="#CCCDCF" style="stroke-width: 0.488;"/>
</svg>